<svg width="50" height="25" viewBox="0 0 50 25" fill="none" xmlns="http://www.w3.org/2000/svg">
<path d="M39.0459 19.4404H37.4419V25H41.9409C44.7577 25 46.805 24.4428 48.083 23.3285C49.361 22.2141 50 20.5426 50 18.314C50 16.376 49.5827 14.9467 48.7481 14.0262C48.0178 13.251 46.805 12.6817 45.1098 12.3183V12.173C46.7268 11.8096 47.9005 11.1797 48.6307 10.2834C49.3871 9.38711 49.7653 8.05475 49.7653 6.28633C49.7653 2.09545 47.1441 0 41.9018 0H37.4419V5.55959H38.8111C39.5414 5.55959 40.0891 5.58382 40.4543 5.63227C40.8455 5.65649 41.1324 5.74128 41.3149 5.88663C41.4975 6.03197 41.6149 6.23789 41.667 6.50436C41.7453 6.74661 41.7844 7.10998 41.7844 7.59447C41.7844 8.05475 41.7453 8.41812 41.667 8.68459C41.6149 8.92684 41.4975 9.12064 41.3149 9.26599C41.1324 9.41134 40.8455 9.50823 40.4543 9.55669C40.0891 9.58091 39.5414 9.59302 38.8111 9.59302H37.4419V15.1526H39.0459C40.4021 15.1526 41.2367 15.2737 41.5497 15.516C41.7322 15.6613 41.8496 15.8672 41.9018 16.1337C41.98 16.4002 42.0191 16.7999 42.0191 17.3328C42.0191 17.8416 41.98 18.2292 41.9018 18.4956C41.8496 18.7621 41.7322 18.968 41.5497 19.1134C41.3671 19.2587 41.0802 19.3556 40.689 19.4041C40.3238 19.4283 39.7761 19.4404 39.0459 19.4404Z" fill="#FFE0C2"/>
<path d="M5.56995 15.3479V2.8343L13.2516 17.6146C13.2559 17.773 13.2671 17.9412 13.2881 18.1272C13.3898 19.0253 13.2881 19.6201 13.2881 19.6201C13.2881 19.6201 13.2259 20.9557 11.5494 22.9671C9.87291 24.9785 5.94539 24.9785 5.94539 24.9785H5.86911C5.83231 24.9807 5.79965 24.9797 5.76676 24.9787C5.73482 24.9776 5.70265 24.9766 5.66624 24.9785C4.80815 25.0092 3.74862 25.0009 2.45712 24.9908H2.45683C1.71611 24.985 0.899087 24.9785 0 24.9785V19.7287C1.40222 19.7287 2.47986 19.6925 3.23291 19.6201C3.98595 19.5477 4.53126 19.3667 4.86883 19.077C5.23237 18.7633 5.44011 18.3167 5.49205 17.7374C5.54398 16.9651 5.56995 16.1685 5.56995 15.3479Z" fill="#FFE0C2"/>
<path d="M23.0177 25H18.1358L5.65894 0.744825V0H13.3974V0.491182L24.2946 22.2384L23.0177 25Z" fill="#FFE0C2"/>
<path d="M27.4233 14.4985H27.5781V25H35.8915V0H27.5781L21.5034 13.6991L24.8309 20.3852L27.4233 14.4985Z" fill="#FFE0C2"/>
</svg>
