<svg width="180" height="13" viewBox="0 0 180 13" fill="none" xmlns="http://www.w3.org/2000/svg">
<path d="M4 3H0V11H4V7V3ZM4.1 7L4.98238 3.09854L4.54669 3H4.1V7ZM24.16 6.68026L23.331 10.5934L24.16 6.68026ZM51.04 7.37267L49.9702 3.51837L51.04 7.37267ZM64.48 4.8812L64.1088 0.898459L64.48 4.8812ZM77.92 5.91498L76.4848 9.64862L77.92 5.91498ZM82.4 7.63712L83.8352 3.90347L82.4 7.63712ZM89.12 8.62726L89.0048 12.6256L89.12 8.62726ZM95.84 7.95935L97.1809 11.7279L95.84 7.95935ZM100.32 6.36535L98.9791 2.59679L100.32 6.36535ZM109.28 5.2845L109.111 1.28807L109.28 5.2845ZM113.76 5.2953L113.572 9.29088L113.76 5.2953ZM127.2 7.30402L128.177 3.42515L127.2 7.30402ZM140.64 6.38381L141.163 2.41821L140.64 6.38381ZM142.88 6.67949L142.357 10.6451L142.88 6.67949ZM145.12 6.97517L144.597 10.9408L145.12 6.97517ZM172 6.27306L171.382 2.32114L172 6.27306ZM174.68 6.19193L172.592 9.60344L174.68 6.19193ZM175.12 6.46129L177.393 3.16998L177.302 3.10734L177.208 3.04978L175.12 6.46129ZM175.9 7L173.627 10.2913L174.653 11H175.9V7ZM176 11H180V3H176V7V11ZM4 7V11H4.1V7V3H4V7ZM4.1 7L3.21762 10.9015L7.64762 11.9034L8.53 8.00192L9.41238 4.10046L4.98238 3.09854L4.1 7ZM8.53 8.00192L7.64762 11.9034C10.755 12.6062 13.8485 12.9169 16.3924 12.1225L15.2 8.30431L14.0076 4.48616C13.5648 4.62445 12.2116 4.73355 9.41238 4.10046L8.53 8.00192ZM15.2 8.30431L16.3924 12.1225L18.6324 11.4229L17.44 7.60478L16.2476 3.78663L14.0076 4.48616L15.2 8.30431ZM17.44 7.60478L18.6324 11.4229L20.8724 10.7234L19.68 6.90525L18.4876 3.0871L16.2476 3.78663L17.44 7.60478ZM19.68 6.90525L20.8724 10.7234C21.7282 10.4561 22.5257 10.4228 23.331 10.5934L24.16 6.68026L24.989 2.7671C22.8076 2.305 20.6185 2.42167 18.4876 3.0871L19.68 6.90525ZM24.16 6.68026L23.331 10.5934L25.571 11.0679L26.4 7.15479L27.229 3.24163L24.989 2.7671L24.16 6.68026ZM26.4 7.15479L25.571 11.0679L27.811 11.5425L28.64 7.62932L29.469 3.71617L27.229 3.24163L26.4 7.15479ZM28.64 7.62932L27.811 11.5425C29.6607 11.9343 31.5265 12.0685 33.3979 11.9382L33.12 7.94783L32.8421 3.95749C31.7268 4.03518 30.606 3.95703 29.469 3.71617L28.64 7.62932ZM33.12 7.94783L33.3979 11.9382L35.638 11.7821L35.36 7.7918L35.0821 3.80147L32.8421 3.95749L33.12 7.94783ZM35.36 7.7918L35.638 11.7821L37.8779 11.6261L37.6 7.63577L37.3221 3.64544L35.0821 3.80147L35.36 7.7918ZM37.6 7.63577L37.8779 11.6261C39.2025 11.5338 40.5264 11.5258 41.8506 11.6018L42.08 7.6084L42.3094 3.61498C40.6469 3.5195 38.9841 3.52967 37.3221 3.64544L37.6 7.63577ZM42.08 7.6084L41.8506 11.6018L44.0906 11.7305L44.32 7.73706L44.5494 3.74364L42.3094 3.61498L42.08 7.6084ZM44.32 7.73706L44.0906 11.7305L46.3306 11.8591L46.56 7.86572L46.7894 3.87231L44.5494 3.74364L44.32 7.73706ZM46.56 7.86572L46.3306 11.8591C48.2774 11.971 50.2094 11.7544 52.1098 11.227L51.04 7.37267L49.9702 3.51837C48.884 3.81987 47.8293 3.93203 46.7894 3.87231L46.56 7.86572ZM51.04 7.37267L52.1098 11.227L54.3498 10.6052L53.28 6.75095L52.2102 2.89665L49.9702 3.51837L51.04 7.37267ZM53.28 6.75095L54.3498 10.6052L56.5898 9.98353L55.52 6.12923L54.4502 2.27494L52.2102 2.89665L53.28 6.75095ZM55.52 6.12923L56.5898 9.98353C57.8621 9.63038 59.1218 9.39793 60.3712 9.28148L60 5.29874L59.6288 1.316C57.8915 1.47792 56.1646 1.79912 54.4502 2.27494L55.52 6.12923ZM60 5.29874L60.3712 9.28148L62.6112 9.07271L62.24 5.08997L61.8688 1.10723L59.6288 1.316L60 5.29874ZM62.24 5.08997L62.6112 9.07271L64.8512 8.86394L64.48 4.8812L64.1088 0.898459L61.8688 1.10723L62.24 5.08997ZM64.48 4.8812L64.8512 8.86394C66.1652 8.74147 67.4777 8.70831 68.7898 8.76418L68.96 4.7678L69.1301 0.771418C67.4557 0.700124 65.7815 0.742565 64.1088 0.898459L64.48 4.8812ZM68.96 4.7678L68.7898 8.76418L71.0299 8.85955L71.2 4.86317L71.3702 0.866789L69.1301 0.771418L68.96 4.7678ZM71.2 4.86317L71.0299 8.85955L73.2699 8.95492L73.44 4.95854L73.6102 0.962159L71.3702 0.866789L71.2 4.86317ZM73.44 4.95854L73.2699 8.95492C74.3005 8.9988 75.3676 9.21917 76.4848 9.64862L77.92 5.91498L79.3552 2.18133C77.4858 1.4627 75.5662 1.04544 73.6102 0.962159L73.44 4.95854ZM77.92 5.91498L76.4848 9.64862L78.7248 10.5097L80.16 6.77605L81.5952 3.0424L79.3552 2.18133L77.92 5.91498ZM80.16 6.77605L78.7248 10.5097L80.9648 11.3708L82.4 7.63712L83.8352 3.90347L81.5952 3.0424L80.16 6.77605ZM82.4 7.63712L80.9648 11.3708C82.85 12.0954 84.7886 12.5041 86.7648 12.5611L86.88 8.56272L86.9952 4.56438C85.9847 4.53527 84.9367 4.32688 83.8352 3.90347L82.4 7.63712ZM86.88 8.56272L86.7648 12.5611L89.0048 12.6256L89.12 8.62726L89.2352 4.62892L86.9952 4.56438L86.88 8.56272ZM89.12 8.62726L89.0048 12.6256L91.2448 12.6901L91.36 8.69181L91.4752 4.69346L89.2352 4.62892L89.12 8.62726ZM91.36 8.69181L91.2448 12.6901C93.2632 12.7483 95.2494 12.4151 97.1809 11.7279L95.84 7.95935L94.4991 4.19078C93.444 4.56622 92.4435 4.72136 91.4752 4.69346L91.36 8.69181ZM95.84 7.95935L97.1809 11.7279L99.4209 10.9309L98.08 7.16235L96.7391 3.39379L94.4991 4.19078L95.84 7.95935ZM98.08 7.16235L99.4209 10.9309L101.661 10.1339L100.32 6.36535L98.9791 2.59679L96.7391 3.39379L98.08 7.16235ZM100.32 6.36535L101.661 10.1339C102.8 9.72863 103.899 9.51537 104.969 9.47018L104.8 5.47374L104.631 1.4773C102.714 1.55827 100.827 1.93942 98.9791 2.59679L100.32 6.36535ZM104.8 5.47374L104.969 9.47018L107.209 9.37556L107.04 5.37912L106.871 1.38268L104.631 1.4773L104.8 5.47374ZM107.04 5.37912L107.209 9.37556L109.449 9.28094L109.28 5.2845L109.111 1.28807L106.871 1.38268L107.04 5.37912ZM109.28 5.2845L109.449 9.28094C110.823 9.22288 112.197 9.22619 113.572 9.29088L113.76 5.2953L113.948 1.29972C112.336 1.22385 110.723 1.21996 109.111 1.28807L109.28 5.2845ZM113.76 5.2953L113.572 9.29088L115.812 9.39629L116 5.40072L116.188 1.40514L113.948 1.29972L113.76 5.2953ZM116 5.40072L115.812 9.39629L118.052 9.50171L118.24 5.50613L118.428 1.51055L116.188 1.40514L116 5.40072ZM118.24 5.50613L118.052 9.50171C119.271 9.55909 120.5 9.7416 121.743 10.0546L122.72 6.17571L123.697 2.29684C121.953 1.85761 120.195 1.59373 118.428 1.51055L118.24 5.50613ZM122.72 6.17571L121.743 10.0546L123.983 10.6187L124.96 6.73987L125.937 2.861L123.697 2.29684L122.72 6.17571ZM124.96 6.73987L123.983 10.6187L126.223 11.1829L127.2 7.30402L128.177 3.42515L125.937 2.861L124.96 6.73987ZM127.2 7.30402L126.223 11.1829C128.285 11.7021 130.378 11.7601 132.459 11.3465L131.68 7.42317L130.901 3.49985C129.996 3.67963 129.102 3.65818 128.177 3.42515L127.2 7.30402ZM131.68 7.42317L132.459 11.3465L134.699 10.9015L133.92 6.97816L133.141 3.05483L130.901 3.49985L131.68 7.42317ZM133.92 6.97816L134.699 10.9015L136.939 10.4565L136.16 6.53315L135.381 2.60982L133.141 3.05483L133.92 6.97816ZM136.16 6.53315L136.939 10.4565C138.008 10.2441 139.062 10.2102 140.117 10.3494L140.64 6.38381L141.163 2.41821C139.232 2.16323 137.298 2.22884 135.381 2.60982L136.16 6.53315ZM140.64 6.38381L140.117 10.3494L142.357 10.6451L142.88 6.67949L143.403 2.71389L141.163 2.41821L140.64 6.38381ZM142.88 6.67949L142.357 10.6451L144.597 10.9408L145.12 6.97517L145.643 3.00956L143.403 2.71389L142.88 6.67949ZM145.12 6.97517L144.597 10.9408C146.311 11.1671 148.03 11.2485 149.75 11.1839L149.6 7.18668L149.45 3.1895C148.183 3.23708 146.915 3.17745 145.643 3.00956L145.12 6.97517ZM149.6 7.18668L149.75 11.1839L151.99 11.0997L151.84 7.10251L151.69 3.10533L149.45 3.1895L149.6 7.18668ZM151.84 7.10251L151.99 11.0997L154.23 11.0155L154.08 7.01835L153.93 3.02117L151.69 3.10533L151.84 7.10251ZM154.08 7.01835L154.23 11.0155C155.615 10.9635 157.001 10.9676 158.386 11.028L158.56 7.03177L158.734 3.03556C157.133 2.9658 155.531 2.961 153.93 3.02117L154.08 7.01835ZM158.56 7.03177L158.386 11.028L160.626 11.1256L160.8 7.12935L160.974 3.13314L158.734 3.03556L158.56 7.03177ZM160.8 7.12935L160.626 11.1256L162.866 11.2231L163.04 7.22693L163.214 3.23072L160.974 3.13314L160.8 7.12935ZM163.04 7.22693L162.866 11.2231C164.627 11.2999 166.386 11.2001 168.138 10.9259L167.52 6.97403L166.902 3.02211C165.667 3.21523 164.439 3.2841 163.214 3.23072L163.04 7.22693ZM167.52 6.97403L168.138 10.9259L170.378 10.5755L169.76 6.62354L169.142 2.67162L166.902 3.02211L167.52 6.97403ZM169.76 6.62354L170.378 10.5755L172.618 10.225L172 6.27306L171.382 2.32114L169.142 2.67162L169.76 6.62354ZM172 6.27306L172.618 10.225C172.945 10.1738 173.218 10.1373 173.442 10.1129C173.669 10.0881 173.821 10.0784 173.911 10.0757C174.016 10.0725 173.973 10.0808 173.838 10.0634C173.765 10.054 173.621 10.0318 173.433 9.9775C173.253 9.92564 172.944 9.81943 172.592 9.60344L174.68 6.19193L176.768 2.78042C175.982 2.29901 175.211 2.17413 174.857 2.12863C174.425 2.07304 174.011 2.06902 173.669 2.07937C172.981 2.10019 172.197 2.19353 171.382 2.32114L172 6.27306ZM174.68 6.19193L172.592 9.60344L173.032 9.8728L175.12 6.46129L177.208 3.04978L176.768 2.78042L174.68 6.19193ZM175.12 6.46129L172.847 9.75259L173.627 10.2913L175.9 7L178.173 3.7087L177.393 3.16998L175.12 6.46129ZM175.9 7V11H176V7V3H175.9V7Z" fill="#FFE0C2"/>
</svg>
